# xmcd
#
# Track frame offsets: 
#        150
#        43830
#        77260
#        128812
#        161315
#        196105
#
# Disc length: 3069 seconds
#
# Revision: 3
# Processed by: cddbd v1.5.2PL0 Copyright (c) Steve Scherf et al.
# Submitted via: ExactAudioCopy v0.95b4
#
DISCID=3c0bfb06
DTITLE=王建民 - 心灵清汤
DYEAR=2001
DGENRE=New Age
TTITLE0=风清云淡
TTITLE1=飘香
TTITLE2=无思
TTITLE3=中气流转
TTITLE4=真滋味
TTITLE5=小憩
EXTD=YEAR: 2001
EXTT0=
EXTT1=
EXTT2=
EXTT3=
EXTT4=
EXTT5=
PLAYORDER=
